<?xml version="1.0" encoding="UTF-8" standalone="no"?>
<!-- Created with Inkscape (http://www.inkscape.org/) -->

<svg
   xmlns:dc="http://purl.org/dc/elements/1.1/"
   xmlns:cc="http://creativecommons.org/ns#"
   xmlns:rdf="http://www.w3.org/1999/02/22-rdf-syntax-ns#"
   xmlns:svg="http://www.w3.org/2000/svg"
   xmlns="http://www.w3.org/2000/svg"
   xmlns:sodipodi="http://sodipodi.sourceforge.net/DTD/sodipodi-0.dtd"
   xmlns:inkscape="http://www.inkscape.org/namespaces/inkscape"
   width="209.44781mm"
   height="47.099277mm"
   viewBox="0 0 742.13792 166.8872"
   id="svg2"
   version="1.1"
   inkscape:version="0.91 r13725"
   sodipodi:docname="computer-programming.svg">
  <defs
     id="defs4" />
  <sodipodi:namedview
     id="base"
     pagecolor="#ffffff"
     bordercolor="#666666"
     borderopacity="1.0"
     inkscape:pageopacity="0.0"
     inkscape:pageshadow="2"
     inkscape:zoom="1.2583734"
     inkscape:cx="257.58869"
     inkscape:cy="111.34628"
     inkscape:document-units="px"
     inkscape:current-layer="layer1"
     showgrid="false"
     inkscape:snap-page="false"
     inkscape:window-width="1920"
     inkscape:window-height="1004"
     inkscape:window-x="0"
     inkscape:window-y="24"
     inkscape:window-maximized="1"
     fit-margin-top="0"
     fit-margin-left="0"
     fit-margin-right="0"
     fit-margin-bottom="0" />
  <metadata
     id="metadata7">
    <rdf:RDF>
      <cc:Work
         rdf:about="">
        <dc:format>image/svg+xml</dc:format>
        <dc:type
           rdf:resource="http://purl.org/dc/dcmitype/StillImage" />
        <dc:title></dc:title>
      </cc:Work>
    </rdf:RDF>
  </metadata>
  <g
     inkscape:label="Layer 1"
     inkscape:groupmode="layer"
     id="layer1"
     transform="translate(-130.73942,-753.97153)">
    <path
       style="fill:#3f9bff;fill-opacity:1"
       d="m 131.23097,920.5465 c -0.005,-0.1375 -0.11715,-17.46263 -0.25,-38.50029 l -0.24155,-38.25029 15.00001,-0.17294 c 41.97367,-0.48393 39.01549,-0.66342 42.39361,2.57227 4.12379,3.94993 5.49169,11.04896 4.86794,25.26338 -0.39685,9.04367 -0.89052,11.81047 -2.60112,14.57829 -3.17009,5.12931 -5.54825,5.75958 -21.73224,5.75958 l -14.4777,0 -1.08072,2.75 c -0.66822,1.70032 -0.8824,7.01589 -0.56113,13.92597 0.43374,9.3291 0.2724,11.27082 -0.97631,11.75 -1.42399,0.54643 -20.32309,0.8475 -20.34079,0.32403 z m 37.56733,-41.16879 c 1.62264,-1.186 1.99861,-2.91244 2.29146,-10.52239 0.49309,-12.81327 -0.41647,-14.05882 -10.2664,-14.05882 -5.79794,0 -7.49943,0.3374 -7.97694,1.58179 -1.01548,2.64628 -0.67701,20.41887 0.42819,22.48395 0.85458,1.5968 2.12972,1.93426 7.30887,1.93426 3.83823,0 7.02724,-0.55078 8.21482,-1.41879 z m 230.94113,2.94865 0,-38.52954 27.02749,-1.6e-4 c 23.36887,-1.4e-4 27.34265,0.22058 29.35564,1.63053 4.15867,2.91285 5.11687,7.14775 5.11687,22.61469 0,15.55253 -0.68742,17.95738 -5.47667,19.15941 -1.38783,0.34832 -2.52333,0.97931 -2.52333,1.4022 0,1.34927 8.94335,26.18277 10.54396,29.27802 l 1.53958,2.97722 -12.29177,-0.28112 -12.29177,-0.28111 -5.33237,-16.25162 c -4.59822,-14.01416 -5.65239,-16.33194 -7.65685,-16.83503 -1.27848,-0.32088 -3.32172,-0.0497 -4.54055,0.60258 -2.16471,1.15852 -2.20494,1.51382 -1.7364,15.33504 0.26381,7.78196 0.65662,14.82403 0.87291,15.64903 0.32973,1.25769 -1.46443,1.54518 -11.10674,1.77971 l -11.5,0.2797 z m 38.92857,-8.10129 c 1.13346,-1.13346 1.57143,-3.5502 1.57143,-8.67126 0,-9.53378 -1.13228,-10.75731 -9.95499,-10.75731 -3.83501,0 -7.15246,0.50745 -7.84501,1.2 -1.61252,1.61252 -1.61252,16.98748 0,18.6 1.84638,1.84638 14.29569,1.56145 16.22857,-0.37143 z m 28.57143,45.62859 c 0,-0.51856 0.86795,-2.43106 1.92877,-4.25 1.06083,-1.81894 3.73684,-8.48216 5.94669,-14.80716 5.72683,-16.39124 11.71029,-33.06738 15.61316,-43.51448 1.85222,-4.95796 3.2875,-9.90796 3.18952,-11 -0.1664,-1.85472 0.54088,-2.00433 10.73636,-2.27102 6.00297,-0.15703 11.26608,0.068 11.69579,0.5 0.42971,0.43202 3.30029,9.1105 6.37907,19.2855 3.07878,10.175 7.63904,25.25 10.13391,33.5 2.49487,8.25 5.17526,16.47777 5.95643,18.28393 0.78116,1.80616 1.4203,3.71866 1.4203,4.25 0,0.57115 -5.23623,0.96607 -12.80902,0.96607 l -12.80902,0 -0.12288,-4.75 c -0.0676,-2.6125 -0.94102,-7.225 -1.94098,-10.25 l -1.8181,-5.5 -10.13855,-0.5 c -14.93591,-0.73659 -15.29241,-0.60963 -18.13328,6.45777 -1.31716,3.27677 -2.39484,7.88927 -2.39484,10.25 l 0,4.29223 -6.41666,0 c -3.52917,0 -6.41667,-0.42428 -6.41667,-0.94284 z m 38.99025,-32.30716 c -0.005,-0.6875 -1.476,-5.94022 -3.2681,-11.6727 -3.04056,-9.72605 -5.12017,-13.07224 -6.15921,-9.91046 -0.24095,0.73324 -2.07331,5.78675 -4.07189,11.23004 -2.88454,7.85626 -3.36133,10.06962 -2.31242,10.73468 2.20278,1.39667 15.82293,1.06799 15.81162,-0.38156 z m 38.50975,-2.49966 c 0,-19.66269 -0.225,-36.87534 -0.5,-38.25034 l -0.5,-2.5 14.2241,-0.2773 14.22409,-0.2773 0.69595,2.7773 c 6.77078,27.02008 10.06144,38.70323 10.98472,39.00016 1.15316,0.37086 2.93808,-5.43457 8.83104,-28.72286 l 3.16306,-12.5 14.61518,-0.27631 14.61518,-0.27632 -1.00499,3.63978 c -0.61558,2.22943 -0.87777,17.16929 -0.67666,38.55643 l 0.32833,34.91667 -11.5,-0.28013 -11.5,-0.28012 0.5,-2.5 c 0.97659,-4.88297 0.52579,-52.32365 -0.50046,-52.66628 -0.55025,-0.18372 -2.72704,6.30354 -4.83731,14.41613 -8.25259,31.7257 -10.19178,38.79581 -10.97125,40.00015 -0.50661,0.78275 -3.17086,1.25 -7.12755,1.25 -3.84676,0 -6.71565,-0.48899 -7.33367,-1.25 -0.55832,-0.6875 -3.11697,-9.575 -5.68588,-19.75 -4.58331,-18.15365 -8.0803,-31.02682 -9.23607,-34 -0.42679,-1.09787 -0.78655,-0.82979 -1.34197,1 -0.75283,2.48011 -0.28732,45.97366 0.54852,51.25 0.42846,2.70467 0.34952,2.75001 -4.78936,2.75034 l -5.225,3.4e-4 z m 199.38158,34.99966 c -0.0651,-0.4125 -0.0366,-1.17324 0.0635,-1.69053 0.6627,-3.42596 0.80072,-65.40504 0.15475,-69.49141 l -0.80114,-5.06806 15.22933,0 15.22934,0 1.00037,2.75 c 0.5502,1.5125 2.78773,7.65456 4.97228,13.64903 1.40895,3.8662 2.31467,6.36478 2.80878,8.06748 l 3.09391,9.17087 c 2.53988,7.20759 9.36747,24.69612 9.81694,25.1456 0.3027,0.30269 0.75781,0.3429 1.01136,0.0893 0.25355,-0.25355 0.5907,-13.60355 0.74922,-29.66667 l 0.28821,-29.20561 4.50078,-5.5e-4 4.50079,-5.5e-4 -0.28622,37.25055 c -0.15742,20.4878 -0.48584,37.82617 -0.72981,38.52972 -0.33669,0.97092 -3.60353,1.21189 -13.55684,1 l -13.11325,-0.27917 -2.46536,-6 c -1.35595,-3.3 -4.42826,-11.175 -6.82735,-17.5 -2.3991,-6.325 -6.39085,-16.84554 -8.87057,-23.37899 -2.47972,-6.53344 -4.93704,-12.30745 -5.46071,-12.83112 -1.63823,-1.63823 -2.03898,5.56803 -1.86079,33.4607 l 0.1709,26.7506 -4.75,-6e-4 c -2.6125,-3.2e-4 -4.80329,-0.33809 -4.86842,-0.75059 z m 76.40255,0.0487 c -2.95068,-0.57113 -6.96212,-5.47814 -8.24012,-10.07979 -0.58566,-2.10875 -1.03527,-14.77621 -1.03843,-29.25706 -0.005,-24.50205 0.0857,-25.71899 2.24442,-29.9966 1.2375,-2.45217 3.375,-5.01588 4.75,-5.69715 1.77278,-0.87835 9.3954,-1.24294 26.20469,-1.2534 l 23.70468,-0.0147 0.59009,3.75 c 1.36397,8.66797 3.26795,7.79111 -16.10843,7.41856 l -17.2382,-0.33143 -1.62845,2.48532 c -1.41188,2.1548 -1.58828,5.62833 -1.32641,26.11923 0.25164,19.69083 0.55229,23.7919 1.80203,24.58081 0.825,0.52079 4.29667,0.95378 7.71482,0.9622 7.7862,0.0192 8.28518,-0.75234 8.28518,-12.81054 0,-8.77637 -0.0517,-8.97031 -2.55988,-9.59982 -1.40793,-0.35337 -4.10793,-0.35207 -6,0.003 l -3.44012,0.64525 0,-5.61129 0,-5.61129 16.75,-5.6e-4 16.75,-5.5e-4 0,20.25055 c 0,11.13781 0.36782,21.26306 0.81739,22.50056 0.80893,2.22673 0.72472,2.25 -8.14159,2.25 -8.72226,0 -8.97556,-0.0661 -9.58644,-2.5 -0.62563,-2.4927 -2.58936,-3.52429 -2.58936,-1.36024 0,3.00446 -3.53867,3.79632 -16.5,3.69225 -7.15,-0.0574 -13.99714,-0.29738 -15.21587,-0.53327 z m -623.78413,-38.79899 0,-38.49998 26.1849,1.4e-4 c 14.4017,7e-5 27.2863,0.41888 28.63246,0.93069 1.34616,0.51181 3.503,2.41279 4.79299,4.22441 2.11402,2.96887 2.38339,4.59312 2.73025,16.46289 0.452,15.46748 -0.49036,19.58021 -4.90551,21.40903 -1.6379,0.67844 -3.18857,1.57423 -3.44594,1.99066 -0.42408,0.68618 3.96402,13.19007 9.38147,26.73245 l 2.1002,5.25 -12.25881,0 -12.2588,0 -5.36734,-16.25 c -2.95203,-8.9375 -5.83888,-16.55402 -6.41522,-16.92559 -0.57634,-0.37157 -2.20051,-0.58774 -3.60927,-0.48036 -2.35173,0.17925 -2.61996,0.68473 -3.27708,6.17559 -0.74654,6.23801 -0.28328,20.6441 0.80305,24.97236 l 0.62947,2.508 -11.85842,-1.6e-4 -11.8584,-1.6e-4 z m 39.3,-7.69971 c 0.7267,-0.7267 1.2,-4.25407 1.2,-8.9433 0,-9.68484 -1.19875,-10.8567 -11.10587,-10.8567 -6.06224,0 -6.71506,0.20221 -7.26384,2.25 -0.78116,2.91487 -0.77552,10.23822 0.0116,15 l 0.61983,3.75 7.66916,0 c 4.63157,0 8.14445,-0.47529 8.86916,-1.2 z m 34.9555,44.63091 c -1.50947,-0.81896 -3.75947,-3.38845 -5,-5.70996 -2.17774,-4.07543 -2.2555,-5.13458 -2.2555,-30.72095 0,-24.5044 0.15061,-26.80023 2,-30.4868 1.1,-2.19275 3.56403,-5.02882 5.47561,-6.30239 3.4062,-2.26933 3.90923,-2.30954 25.18651,-2.01319 l 21.7109,0.30238 3.04574,2.92008 c 5.78334,5.54475 6.24348,8.40478 5.8951,36.64139 -0.30842,24.99765 -0.357,25.51389 -2.8031,29.78657 -3.95173,6.9026 -4.99841,7.15744 -29.2111,7.11192 -16.91003,-0.0318 -21.86527,-0.34691 -24.04416,-1.52905 z m 32.38372,-11.34256 c 2.36074,-1.91161 2.36078,-1.91202 2.36078,-25.58835 l 0,-23.67671 -2.48609,-2.01311 c -2.05295,-1.66238 -3.57957,-1.94348 -8.76247,-1.61346 -10.03492,0.63898 -9.75144,-0.15264 -9.75144,27.2315 0,27.92942 -0.13029,27.57178 10.0442,27.57178 4.64822,0 6.83482,-0.48633 8.59502,-1.91165 z m 34.61171,10.93037 c -5.2776,-4.15136 -5.84563,-7.80554 -5.80275,-37.32961 0.0352,-24.25562 0.229,-27.41102 1.88018,-30.61593 3.18929,-6.19036 4.86489,-6.55057 31.46855,-6.7649 l 23.79691,-0.19172 0.95309,2.50682 c 0.5242,1.37875 0.95309,4.25412 0.95309,6.3897 0,3.87784 -0.004,3.88153 -2.99234,2.83975 -1.74593,-0.60864 -9.06921,-0.89937 -17.58144,-0.69799 -13.05868,0.30895 -14.73791,0.54879 -16.00766,2.28629 -1.12865,1.54443 -1.41856,6.70469 -1.41856,25.25 0,21.97554 0.11441,23.42328 2,25.30887 1.50109,1.50109 3.33333,2 7.34501,2 7.56125,0 8.61508,-1.45348 8.81833,-12.16261 0.0888,-4.67664 -0.19471,-9.07913 -0.62992,-9.78332 -0.54509,-0.88198 -2.46948,-1.14118 -6.18493,-0.83306 -4.90337,0.40662 -5.44373,0.24769 -5.94474,-1.74849 -0.30311,-1.20768 -0.40545,-3.72054 -0.22743,-5.58415 l 0.32368,-3.38837 18.2338,-0.2725 18.2338,-0.27249 -0.9838,2.58759 c -1.32233,3.478 -1.27851,38.03821 0.0514,40.52314 0.98982,1.84949 0.61728,1.93426 -8.5,1.93426 -8.86853,0 -9.5352,-0.13983 -9.5352,-2 0,-1.1 -0.56675,-2 -1.25945,-2 -0.6927,0 -1.82152,0.9 -2.50848,2 -1.16093,1.85895 -2.33202,2 -16.60569,2 -13.7941,0 -15.61295,-0.2016 -17.87545,-1.98128 z m 292.74907,-36.04539 0,-38.02582 13.99652,0.27625 13.99652,0.27624 5.18728,20.35046 c 5.06013,19.85168 5.77087,22.03168 6.83577,20.96678 0.6551,-0.65509 9.0898,-31.04285 10.02478,-36.11631 0.41653,-2.2602 0.78515,-3.74203 1.78313,-4.71701 l 29.12554,0.01 c -1.22041,1.12674 -1.18103,1.08681 -2.01296,2.78791 l 0.48055,68.46863 0.87225,3.75 -11.64469,8.5e-4 -11.64469,8.5e-4 0.31061,-27.14024 c 0.18853,-16.47236 -0.0672,-27.51807 -0.65066,-28.10151 -0.61504,-0.61504 -1.15422,-0.29469 -1.49696,0.88939 -0.98407,3.39969 -9.53814,35.73329 -11.86554,44.85066 l -2.29745,9 -7.70037,0.29117 -7.70037,0.29117 -0.9778,-3.79117 c -0.53779,-2.08514 -2.86173,-10.99117 -5.16431,-19.79117 -2.30258,-8.8 -5.09057,-19.4875 -6.19552,-23.75 -2.03978,-7.86868 -3.67911,-9.99056 -3.86291,-5 -0.29993,8.14362 0.28458,49.00888 0.72232,50.5 0.44378,1.5117 -0.21033,1.74994 -4.80365,1.74957 l -5.31739,-4.3e-4 z m 85,0.0263 0,-37.99997 4,-0.16506 c 2.2,-0.0908 7.375,-0.20168 11.5,-0.24645 l 7.5,-0.0814 -0.5,3.4966 c -0.275,1.92313 -0.5,18.70065 -0.5,37.28337 0,28.94472 0.21497,33.92262 1.5,34.73469 0.9923,0.62708 -2.73081,0.95304 -11,0.96305 l -12.5,0.0151 0,-37.99998 z m 113.71344,-49.74696 c -11.6081,-0.29747 -12.33646,-0.43739 -13.19013,-2.53378 -0.49696,-1.22041 -3.55018,-8.51893 -6.78494,-16.21893 l -5.88137,-14 -4.9285,0 -4.9285,0 -0.28033,12.8104 c -0.15418,7.04571 0.14705,14.35821 0.66939,16.25 l 0.94973,3.4396 -15.8944,0 -15.89439,0 0.725,-3.25 c 1.00067,-4.48575 0.91767,-68.71965 -0.0924,-71.5 l -0.81739,-2.25 35.09951,0 c 47.4859,0 45.36377,-1.04904 45.85663,22.66849 0.36133,17.38767 -0.27278,19.594 -6.07656,21.14309 -4.5312,1.20942 -4.17415,3.0923 3.66706,19.33772 3.62348,7.50712 6.58814,13.91962 6.58814,14.25 0,0.33038 -1.4625,0.5034 -3.25,0.38448 -1.7875,-0.11892 -8.77895,-0.35791 -15.53655,-0.53107 z M 816.20425,784.8622 c 1.55283,-2.90149 1.28993,-14.33462 -0.38228,-16.62461 -1.24489,-1.70481 -2.67539,-1.94113 -11.75,-1.94113 l -10.33254,0 -0.28498,10.25 -0.28499,10.25 10.9998,0 c 9.85173,0 11.10785,-0.20188 12.03499,-1.93426 z m -657.46482,46.21638 c -3.64624,-0.88581 -8.69148,-5.49221 -10.58689,-9.66603 -1.64632,-3.62532 -1.87181,-6.80698 -1.89115,-26.68459 -0.0244,-25.07725 0.87173,-30.59115 5.70453,-35.0997 5.70703,-5.32413 5.84851,-5.34546 34.12721,-5.14476 14.49454,0.10287 26.48749,0.32787 26.65099,0.5 0.1635,0.17213 0.72464,3.16037 1.24696,6.64054 0.9275,6.1798 0.90062,6.31016 -1.15099,5.58182 -1.15536,-0.41016 -9.15762,-0.92562 -17.78279,-1.14545 -19.84573,-0.50583 -19.80792,-0.52962 -19.83829,12.48605 -0.0112,4.8125 -0.29364,13.77338 -0.62759,19.91308 -0.72393,13.30928 -0.0463,17.83586 2.96524,19.80912 2.51462,1.64765 28.58358,2.47101 34.5625,1.09163 l 3.37973,-0.77973 -0.68669,4.85795 c -1.30373,9.22318 1.57492,8.37249 -27.89016,8.24195 -14.40044,-0.0638 -27.08261,-0.33465 -28.18261,-0.60188 z m 74.1193,-0.31654 c -3.92278,-1.17454 -7.51622,-4.67059 -9.72926,-9.46558 -1.62866,-3.52884 -1.8487,-6.80131 -1.86808,-27.78212 -0.0235,-25.4177 0.44097,-28.37111 5.27577,-33.54925 4.7089,-5.04329 5.60164,-5.16863 36.81475,-5.16863 29.037,0 29.23633,0.0144 33.31041,2.40194 2.38723,1.39902 5.13799,4.21748 6.58786,6.75 2.4665,4.30833 2.48925,4.57222 2.48925,28.87663 0,24.25559 -0.0281,24.58389 -2.52704,29.5 -1.90899,3.75555 -3.61168,5.52172 -6.96189,7.22143 -4.29959,2.18138 -5.28999,2.24738 -32.47296,2.16405 -15.42096,-0.0473 -29.33442,-0.47409 -30.91881,-0.94847 z m 42.46969,-12.82636 c 1.75163,-2.1639 1.91101,-4.1918 1.91101,-24.31575 0,-21.48017 -0.45369,-25.09105 -3.3997,-27.05816 -0.60517,-0.40408 -5.21295,-0.74158 -10.23952,-0.75 -14.23696,-0.0238 -13.47383,-1.64766 -13.13821,27.95576 l 0.27743,24.47107 2.5,1.31421 c 1.66148,0.87341 5.46468,1.21853 11.33899,1.02893 7.90088,-0.255 9.0418,-0.53583 10.75,-2.64606 z m 39.41101,-22.38879 c 0,-19.93774 -0.36782,-37.26293 -0.81739,-38.50043 l -0.81739,-2.25 18.94869,0 18.94868,0 3.4918,9.75 c 1.92049,5.3625 4.72169,13.8 6.22488,18.75 3.17882,10.4678 5.35056,15.08309 6.5242,13.8649 0.4583,-0.47569 3.77629,-9.52202 7.37332,-20.10294 3.59702,-10.58092 7.00185,-20.10094 7.56628,-21.15559 0.95487,-1.78418 2.3201,-1.91803 19.62799,-1.9243 l 18.60175,-0.007 -0.8364,2.66234 c -1.0235,3.25782 -1.12284,67.37831 -0.11141,71.91229 l 0.725,3.25 -16.09163,0 -16.09163,0 0.79233,-2.25 c 1.07959,-3.0657 1.51018,-51.74981 0.47982,-54.25 -1.0514,-2.55126 1.24744,-8.60059 -18.7287,49.28386 l -2.51369,7.28386 -10.05486,-0.28386 -10.05486,-0.28386 -8.75061,-25.5 C 328.56979,774.89 328.3603,774.342 327.48555,775.21674 c -0.79403,0.79403 -0.3974,50.88433 0.4302,54.32946 0.52059,2.16713 0.2879,2.25002 -6.31791,2.25043 l -6.85841,4.2e-4 0,-36.25042 z m 114.11806,34.49957 c 1.18464,-2.4916 1.69458,-64.02829 0.58135,-70.15317 l -0.92638,-5.09683 15.61348,-0.0391 c 50.78741,-0.12724 54.38974,0.003 58.77052,2.11914 6.58719,3.18245 7.80704,6.77187 7.58167,22.30903 -0.20574,14.18393 -1.39584,18.14402 -6.62785,22.05426 -2.54178,1.89965 -4.39385,2.08127 -24.25571,2.37861 l -21.5038,0.32193 0.32433,13.92949 0.32433,13.92949 -15.35699,-10e-4 c -14.27574,-10e-4 -15.29841,-0.12464 -14.52495,-1.75143 z m 51.82524,-40.47251 c 2.08835,-2.98154 2.18981,-18.52822 0.13924,-21.33636 -1.24489,-1.70481 -2.67539,-1.94113 -11.75,-1.94113 l -10.33254,0 -0.27988,12.75 -0.27987,12.75 10.47317,0 c 9.68906,0 10.58972,-0.1664 12.02988,-2.22251 z m 46.76335,40.57648 c -1.87951,-0.93923 -4.45531,-3.62231 -6,-6.24987 l -2.70665,-4.6041 -0.52589,-30.5 c -0.28925,-16.775 -0.89989,-31.2875 -1.35699,-32.25 -0.77398,-1.62972 0.30859,-1.75 15.75114,-1.75 l 16.58224,0 -0.97525,2.5651 c -0.55021,1.44715 -0.97525,14.89035 -0.97525,30.84501 0,26.79413 0.10273,28.37288 1.95524,30.04938 1.69623,1.53506 4.22271,1.78742 19.07181,1.90499 16.04249,0.12702 17.20923,0.01 18.59323,-1.86448 1.24285,-1.68333 1.4294,-6.86891 1.17819,-32.75073 l -0.29847,-30.75074 7.35699,7.4e-4 c 6.63199,6.6e-4 7.28142,0.17318 6.59012,1.75073 -0.99128,2.26209 -1.35242,10.43036 -1.73536,39.25 -0.34678,26.09885 -0.94048,28.88674 -7.08504,33.26969 -3.04333,2.17083 -3.91338,2.23697 -32.62671,2.48018 -25.71482,0.21781 -29.92257,0.0387 -32.79335,-1.3959 z m 101.35078,-3.10397 c 0.83583,-3.1806 1.28921,-13.87988 1.37219,-32.38274 0.11006,-24.54134 -0.056,-27.70179 -1.48463,-28.25 -2.50846,-0.96258 -15.5825,-0.72501 -19.33559,0.35136 l -3.37739,0.96863 0.65864,-5.604 c 0.36225,-3.08219 0.89911,-5.99307 1.19301,-6.46862 0.29391,-0.47555 16.71895,-0.86463 36.50011,-0.86463 l 35.96573,0 0.82879,2.25 c 0.45583,1.2375 1.11275,4.39961 1.45981,7.02692 0.61127,4.62741 0.56492,4.74155 -1.48078,3.64672 -2.57064,-1.37576 -16.6405,-2.44586 -20.24939,-1.54008 l -2.60793,0.65454 0,29.91585 c 0,17.01761 0.42048,31.02179 0.97525,32.48095 l 0.97525,2.5651 -16.32066,0 -16.32066,0 z m 59.18075,0.5 c 1.01099,-5.64008 0.98256,-64.20918 -0.0335,-69 l -0.79531,-3.75 32.97793,0 c 37.10623,0 33.34626,-0.90054 34.59528,8.28578 l 0.6507,4.78577 -2.81664,-0.78577 c -1.54915,-0.43218 -10.01664,-0.78578 -18.81664,-0.78578 l -16,0 -0.2857,10.31488 -0.2857,10.31487 17.53698,-0.31487 17.53698,-0.31488 0,6.5 0,6.5 -17.50128,-0.31446 -17.50128,-0.31446 0,10.43362 0,10.43362 3.75,0.61983 c 5.71074,0.94393 22.0227,0.74937 28.68843,-0.34218 3.26613,-0.53485 6.12602,-0.78485 6.3553,-0.55557 0.22929,0.22929 0.10031,3.14449 -0.28661,6.47824 l -0.70349,6.06136 -33.91363,0 -33.91364,0 z"
       id="path4771"
       inkscape:connector-curvature="0"
       sodipodi:nodetypes="cscssssscssscsssssssccsssssscccsscsssccsssssssssssscssssscsscssscsscscsscsscccssscccsscccscssssssssscsccscccssccccscccssscssssscsccscssscsscssssssccccccssssssccccssssssscccssssscccccsssccsccsssssscssssssscssssssssscssssssssssssscccssssssssccccssscccccccscsscccssssssccccsscsssscccssscccsscccsscsssssssssscccssssssssssssssscsssssssssssssssssssscssscscccsssssccsscccssscccssssccccscscssscccsccssscccsssscssscsssssscsssssssssscscscsssscsscccssscsscsscccccccccccsssscccs" />
  </g>
</svg>
