<?xml version="1.0" encoding="UTF-8" standalone="no"?>
<svg
   xmlns:dc="http://purl.org/dc/elements/1.1/"
   xmlns:cc="http://creativecommons.org/ns#"
   xmlns:rdf="http://www.w3.org/1999/02/22-rdf-syntax-ns#"
   xmlns:svg="http://www.w3.org/2000/svg"
   xmlns="http://www.w3.org/2000/svg"
   viewBox="0 0 1016.8237 324.6778"
   height="324.6778"
   width="1016.8237"
   xml:space="preserve"
   version="1.1"
   id="svg4208"><metadata
     id="metadata4214"><rdf:RDF><cc:Work
         rdf:about=""><dc:format>image/svg+xml</dc:format><dc:type
           rdf:resource="http://purl.org/dc/dcmitype/StillImage" /><dc:title></dc:title></cc:Work></rdf:RDF></metadata><defs
     id="defs4212" /><g
     transform="matrix(1.25,0,0,-1.25,128.50474,672.36053)"
     id="g4216"><path
       id="path4827"
       d="m -100.04196,316.0173 c 0.0326,20.82911 0.305893,39.49111 0.607283,41.47111 l 0.54799,3.6 3.12242,-5.6 c 11.00744,-19.74159 20.23824,-27.81964 27.83455,-24.35852 4.40156,2.00548 5.70371,8.41355 3.35288,16.5001 -1.3528,4.6535 -9.03674,20.40082 -15.15501,31.05842 -5.90465,10.28549 -15.2453,29.87657 -17.49401,36.69192 -4.997843,15.14737 -5.634463,19.08839 -5.574293,34.50809 0.0498,12.75908 0.29242,15.32576 2.12928,22.52415 3.180323,12.46315 9.987433,24.63527 16.760543,29.9703 6.07412,4.78445 9.26636,5.86152 17.40907,5.87386 7.42795,0.0113 7.779,-0.0743 15.50711,-3.77839 8.55597,-4.10092 11.75995,-4.59241 16.20059,-2.48519 1.51223,0.7176 2.90331,1.15093 3.09127,0.96296 0.30117,-0.30117 0.56567,-42.50221 0.41032,-65.46769 l -0.0568,-8.4 -3.37624,6.03411 c -10.30213,18.4123 -20.27756,28.68557 -27.91485,28.74832 -2.87605,0.0236 -6.84129,-3.45773 -7.77021,-6.82201 -0.93041,-3.36964 0.35066,-9.9832 4.06096,-20.96486 1.47659,-4.37037 8.83437,-20.09811 16.74596,-35.79556 15.60416,-30.96033 17.7543,-36.16226 19.97874,-48.33554 2.48082,-13.57625 1.70076,-25.37915 -2.52233,-38.16472 -4.58604,-13.88442 -15.59277,-25.15428 -29.286,-29.98614 -4.09459,-1.44483 -6.45474,-1.63827 -19.19887,-1.57354 -14.52565,0.0738 -14.53118,0.0731 -17,-2.00425 l -2.469653,-2.07805 z m 766.13741,-31.30246 c -3.6485,0.91105 -9.6147,3.91192 -13.3757,6.72772 -3.3407,2.50116 -8.0135,3.879 -10.7911,3.18189 l -2.0299,-0.50949 0,36.22006 c 0,19.92103 0.1483,36.07006 0.3296,35.88673 0.1814,-0.18334 1.8489,-3.03334 3.7058,-6.33334 8.4923,-15.09264 16.9244,-25.95467 22.0287,-28.37681 8.447,-4.00835 14.5281,4.10245 11.5333,15.38262 -1.6348,6.15695 -7.8251,20.50686 -14.5785,33.79419 -12.1729,23.95027 -17.2915,36.8726 -21.0731,53.20001 -1.8861,8.14382 -2.2239,11.35954 -2.2267,21.2 0,12.74308 0.9689,17.85947 5.145,27.06976 4.6195,10.18802 11.8607,17.39307 21.6362,21.52823 4.9003,2.07291 5.6678,2.15811 19.6325,2.17962 13.6926,0.0211 14.6702,0.12398 16.9096,1.77948 1.3072,0.9664 2.5974,1.5364 2.8672,1.26667 0.6114,-0.61146 0.4576,-44.42608 -0.2129,-60.62376 -0.4892,-11.81914 -0.517,-11.96287 -1.8468,-9.53623 -0.7425,1.35507 -3.3688,5.39424 -5.836,8.97593 -8.9969,13.0608 -17.6832,16.9873 -23.1657,10.47171 -1.8539,-2.20322 -2.0482,-3.09403 -2.0482,-9.38887 0,-11.32179 2.6202,-18.84438 15.0899,-43.32254 14.9075,-29.26344 20.1255,-43.37361 22.1681,-59.94516 1.4258,-11.56653 0.7091,-20.21662 -2.523,-30.45485 -5.4103,-17.13825 -18.7461,-29.62388 -32.7894,-30.69897 -3.0501,-0.23349 -6.8971,-0.0871 -8.5489,0.3254 z m -39.9949,12.82395 c -2.529,1.30537 -8.109,3.23621 -12.4,4.29073 -4.291,1.05453 -15.7218,3.89787 -25.4018,6.31853 -9.68,2.42066 -20.39,5.00865 -23.8,5.75108 -3.41,0.74244 -6.2,1.48676 -6.2,1.65405 0,0.16729 1.2034,2.20115 2.6743,4.5197 5.4484,8.58833 5.4579,8.66013 6.1608,46.61553 0.9527,51.45214 0.9018,91.61094 -0.1246,98.22625 -1.0214,6.58319 -3.4779,12.61309 -6.6841,16.40754 -1.224,1.44859 -2.0379,2.82143 -1.8085,3.05075 0.2293,0.22932 5.4041,1.27437 11.4995,2.32232 6.0954,1.04796 14.1426,2.45369 17.8826,3.12385 3.74,0.67015 7.88,1.40849 9.2,1.64074 18.3189,3.22311 29.3548,5.60737 31.8246,6.87551 1.6636,0.85418 3.1936,1.55305 3.4,1.55305 0.2065,0 0.3754,-14.4 0.3754,-32 0,-17.6 -0.3111,-32 -0.6912,-32 -0.3802,0 -1.6981,1.45286 -2.9286,3.22858 -6.1339,8.85114 -16.8109,16.06917 -27.8605,18.83465 -4.6528,1.16452 -5.587,1.20289 -6.1877,0.25417 -1.0827,-1.70994 -0.9326,-43.69899 0.1586,-44.37341 1.3867,-0.85707 13.9568,4.51766 18.3731,7.85601 2.1828,1.65 4.1414,3 4.3525,3 0.2111,0 0.3838,-10.26 0.3838,-22.8 0,-12.54001 -0.1563,-22.80001 -0.3473,-22.80001 -0.191,0 -2.981,1.98981 -6.2,4.42179 -6.4432,4.86792 -13.6134,8.61866 -15.7056,8.21573 -1.2288,-0.23664 -1.3471,-2.47188 -1.3471,-25.44848 l 0,-25.18904 2.2467,-0.25764 c 3.0355,-0.3481 11.0779,2.45748 15.8823,5.54047 4.3275,2.77695 13.1658,12.02521 16.5216,17.28797 1.1821,1.85393 2.4194,3.38393 2.7494,3.4 0.33,0.0161 0.6,-16.1708 0.6,-35.9708 0,-28.28719 -0.2143,-35.99175 -1,-35.96152 -0.55,0.0212 -3.0692,1.10651 -5.5982,2.4119 z m -650.341587,4.43467 c 1.31279,2.15322 3.19634,6.43495 4.18565,9.51495 1.71045,5.32508 1.83298,7.44588 2.49608,43.2 0.38354,20.68 0.57574,58.12001 0.42713,83.20001 -0.2864,48.33449 -0.36083,49.34066 -4.28042,57.86497 -0.67397,1.46573 -1.06,2.83036 -0.85785,3.0325 0.20214,0.20214 2.8429,-0.16981 5.86836,-0.82655 6.4560901,-1.40146 18.2630801,-3.16813 32.4549,-4.8562 15.91978,-1.89362 24.52959,-5.75339 32.82386,-14.71492 8.85522,-9.56763 12.81792,-20.87096 12.93624,-36.8998 0.0542,-7.33148 -0.32769,-11.60112 -1.43081,-16 -5.1019,-20.34471 -18.59559,-35.76075 -39.24438,-44.83522 l -6.19749,-2.72359 0.37158,-26.0206 c 0.3339,-23.38204 0.53652,-26.525 1.99814,-30.99493 0.89462,-2.73589 2.42413,-6.26483 3.39893,-7.84208 0.9748,-1.57726 1.6413,-2.96938 1.48111,-3.09359 -0.16019,-0.12421 -3.17125,-0.87533 -6.69125,-1.66915 -3.52,-0.79381 -13.2399999,-3.2078 -21.5999999,-5.36441 -8.3600001,-2.15661 -16.3985101,-4.13828 -17.8633401,-4.40372 l -2.66333,-0.48262 z m 45.95607,111.40132 c 4.12084,4.40551 6.23368,8.17913 8.09546,14.45884 3.8401,12.95248 -1.83522,25.79051 -12.91175,29.20736 l -1.8,0.55526 0,-24.05391 c 0,-22.93169 0.0695,-24.05391 1.49053,-24.05391 0.81979,0 3.12638,1.74886 5.12576,3.88636 z m 25.81409,-91.64256 c 4.55352,8.55972 7.14078,16.57135 9.99693,30.95619 1.26677,6.38 3.40778,16.82 4.75781,23.2 1.35003,6.38 3.88169,18.62 5.62593,27.20001 1.74423,8.58 3.74865,18.3 4.45428,21.6 6.74152,31.52796 7.55269,38.29694 5.75292,48.0061 -0.69265,3.73664 -1.38512,7.3339 -1.53881,7.9939 -0.3595,1.54377 1.62617,1.47096 18.12056,-0.66437 7.039997,-0.91138 15.443407,-1.90455 18.674237,-2.20703 l 5.87423,-0.54997 -0.67423,-3.68931 c -0.37083,-2.02913 -0.66262,-8.54932 -0.64843,-14.48932 0.0241,-10.07869 0.38834,-12.61664 5.45385,-38 12.84527,-64.36777 12.68036,-63.61989 16.14128,-73.20001 1.78624,-4.94445 5.4744,-11.24699 7.9335,-13.55719 1.12506,-1.05694 2.04556,-2.18242 2.04556,-2.50106 0,-0.31865 -2.61,-0.82438 -5.8,-1.12385 -3.19,-0.29946 -13.15586,-1.59015 -22.14634,-2.86818 -8.99049,-1.27804 -16.48079,-2.18925 -16.64511,-2.02493 -0.16432,0.16432 0.31632,2.17929 1.0681,4.47771 1.16735,3.56898 1.28433,6.00482 0.80141,16.68822 -0.58421,12.9242 -1.40226,20.50015 -2.31179,21.40968 -0.63771,0.63772 -20.012147,-1.26351 -21.359117,-2.09597 -0.90897,-0.56178 -1.65101,-3.95609 -4.11087,-18.80443 -1.18251,-7.13795 -1.42075,-18.47686 -0.4809,-22.88876 l 0.61539,-2.88877 -17.03663,-3.31123 c -9.37013,-1.82118 -17.27544,-3.31124 -17.56733,-3.31124 -0.29191,0 1.05971,2.98972 3.00357,6.64381 z m 53.707147,69.82611 c 0.48462,1.2629 -1.08451,17.9622 -3.338537,35.53009 -1.55873,12.14878 -1.97005,13.94893 -2.96084,12.95815 -0.43999,-0.43999 -2.57905,-11.51476 -4.75347,-24.61059 -3.15025,-18.973 -3.74332,-23.94394 -2.91908,-24.46684 0.56892,-0.36093 3.8357,-0.66174 7.2595,-0.66848 4.95543,-0.01 6.324507,0.24677 6.712427,1.25767 z m 448.18298,-74.52372 c -0.1904,0.1904 -8.2345,1.81444 -17.8757,3.60896 -9.6412,1.79452 -17.7032,3.43653 -17.9155,3.6489 -0.2124,0.21238 0.1216,1.01834 0.7423,1.79104 5.0749,6.3183 5.6461,10.96778 6.0943,49.6049 0.2937,25.31291 0.1594,33.80001 -0.5348,33.80001 -0.7881,0 -6.96,-12.1903 -16.9744,-33.52638 -1.769,-3.76902 -2.5938,-4.82814 -3.115,-4 -0.3899,0.6195 -5.0795,10.75637 -10.4212,22.52637 -5.3418,11.77001 -10.0128,21.40001 -10.3801,21.40001 -1.4377,0 -1.6671,-6.59076 -1.326,-38.09759 0.3759,-34.72222 0.8422,-39.33753 4.6219,-45.74362 0.86,-1.45764 1.5637,-2.86004 1.5637,-3.11644 0,-0.25641 -1.89,-0.25452 -4.2,0.004 -7.675,0.8596 -23.387,2.99853 -24.273,3.30438 -0.5629,0.19433 -0.019,2.8134 1.5312,7.3752 2.2293,6.55928 2.4438,8.20865 2.9487,22.67386 0.2995,8.58 0.4851,33.42 0.4123,55.2 -0.139,41.56009 -0.2451,42.96077 -3.9053,51.52283 -0.7342,1.71756 -1.2383,3.21945 -1.1202,3.33753 0.1181,0.11808 4.8928,0.59087 10.6105,1.05065 5.7177,0.45977 13.0627,1.08487 16.3222,1.3891 l 5.9264,0.55315 -0.5948,-1.92663 c -0.3272,-1.05965 -0.7871,-4.85564 -1.022,-8.43554 -0.3484,-5.31031 -0.1121,-7.4554 1.2834,-11.64884 1.6727,-5.02656 14.0711,-34.09944 14.8921,-34.92046 0.8085,-0.80845 1.8175,1.19018 5.5929,11.07821 2.1,5.5 4.5157,11.8 5.3683,14 6.4146,16.55179 7.1602,19.50373 6.9294,27.43436 -0.2022,6.94643 -0.081,7.69432 1.3378,8.24536 0.858,0.3333 7.3201,1.36297 14.3601,2.28816 7.04,0.92518 13.79,1.8419 15,2.03714 2.6255,0.42364 2.6206,0.45116 0.6136,-3.3994 -0.8726,-1.67402 -2.3925,-5.91511 -3.3777,-9.42464 -1.7767,-6.32952 -1.7933,-6.90684 -2.0633,-71.58098 -0.2891,-69.23547 -0.1909,-71.44696 3.4882,-78.6 1.4111,-2.74336 1.6558,-3.8 0.8802,-3.8 -0.5909,0 -1.2301,0.15578 -1.4205,0.34619 z m -110.3205,16.92028 c -4.18,0.59086 -11.2,1.53762 -15.6,2.10391 -6.2716,0.80716 -7.9643,1.28888 -7.8347,2.22961 0.091,0.66 0.5755,2.93552 1.0769,5.0567 0.6677,2.82483 0.6839,6.03543 0.061,12 -1.3348,12.77435 -2.4639,19.22476 -3.4745,19.84934 -1.1817,0.73035 -13.0564,1.73396 -16.2,1.36916 -2.7822,-0.32286 -2.8417,-0.52163 -4.8655,-16.25122 -0.8537,-6.6351 -1.1428,-12.32577 -0.8021,-15.78394 l 0.5329,-5.40793 -9.0469,0.4178 c -12.2089,0.56384 -17.4468,1.13756 -17.4468,1.91098 0,0.35517 0.8955,2.60187 1.9901,4.99267 3.5446,7.74251 5.303,16.87138 15.6114,81.04645 3.0315,18.87262 3.7795,29.84303 2.4211,35.50577 -0.5516,2.29932 -0.7685,4.415 -0.482,4.70151 0.2865,0.2865 6.3571,0.81367 13.4901,1.17147 7.1331,0.35781 16.9293,0.94432 21.7693,1.30336 4.84,0.35903 8.9352,0.54717 9.1006,0.41807 0.1653,-0.12909 -0.073,-3.78701 -0.5289,-8.1287 -0.9612,-9.14816 -0.1396,-22.27456 2.2424,-35.82519 0.8559,-4.86953 2.9999,-17.28953 4.7642,-27.6 7.9859,-46.66702 8.3766,-48.6243 11.3276,-56.7463 0.8793,-2.42 2.283,-5.57 3.1194,-7 l 1.5207,-2.6 -2.573,0.0961 c -1.4152,0.0529 -5.993,0.57953 -10.173,1.17039 z m -28.7749,66.53353 c 0.058,5.07363 -5.1962,39.40969 -5.99,39.14591 -0.4593,-0.15261 -1.2956,-3.30787 -1.8584,-7.0117 -2.5627,-16.86378 -4.6924,-33.18713 -4.4014,-33.73421 0.1755,-0.33 2.9979,-0.6 6.2719,-0.6 l 5.9528,0 0.025,2.2 z M 172.29874,334.61563 c -10.49679,2.60097 -18.00712,9.24096 -25.12788,22.21596 -6.74311,12.28683 -9.95659,27.96294 -9.97428,48.65683 -0.0276,32.30864 9.81232,57.32946 25.63995,65.19689 6.83821,3.39907 13.22452,3.61088 23.54341,0.78084 7.2418,-1.98612 8.45196,-2.11302 12.18444,-1.27773 2.27924,0.51007 5.16935,1.45933 6.42248,2.10945 1.25312,0.65013 2.60204,0.98204 2.9976,0.73757 0.40345,-0.24934 0.70185,-12.06806 0.67969,-26.92087 -0.0433,-29.01039 -0.002,-28.83476 -4.30354,-18.20237 -3.94785,9.7576 -9.52042,16.07629 -16.24553,18.42068 -3.43265,1.19662 -10.04071,-0.21551 -13.55628,-2.89697 -5.42482,-4.1377 -8.26967,-11.27537 -10.34187,-25.94749 -3.03287,-21.47415 1.7341,-41.12445 12.21431,-50.3495 4.38294,-3.85802 10.86454,-6.08433 15.33496,-5.26729 6.24026,1.1405 12.76502,6.55072 17.36357,14.39756 1.89634,3.23586 2.32724,3.58014 2.99265,2.39112 0.91949,-1.64303 0.231,-10.40487 -1.44252,-18.35794 -3.07284,-14.60301 -11.8334,-23.92241 -24.40528,-25.96212 -6.39388,-1.03736 -8.87532,-0.98847 -13.97588,0.27538 z m 46.46577,8.27278 c 1.53775,3.05419 3.0671,7.65894 3.52051,10.6 1.07484,6.97221 1.06492,90.7799 -0.0118,98.94212 -0.5328,4.03923 -1.66984,7.9335 -3.20713,10.98409 -1.30993,2.59941 -2.21664,4.89124 -2.01493,5.09296 0.20172,0.20171 7.85493,-0.0362 17.00714,-0.52872 23.9893,-1.29094 37.75678,-1.17144 42.28827,0.36704 2.03709,0.69161 3.92445,1.03683 4.19413,0.76716 0.70938,-0.70938 0.9778,-20.18282 0.41478,-30.09074 l -0.48109,-8.46609 -5.07756,5.00312 c -7.11681,7.01249 -17.01237,11.29704 -24.44417,10.58378 l -2.65396,-0.25471 0,-13.6 0,-13.6 2.31612,-0.26435 c 2.64442,-0.30181 8.76833,1.80554 11.59177,3.98895 1.04934,0.81147 2.21934,1.4754 2.6,1.4754 0.38067,0 0.69211,-6.66 0.69211,-14.8 0,-9.71135 -0.28602,-14.80001 -0.83187,-14.80001 -0.45753,0 -2.16753,0.67686 -3.8,1.50413 -3.54991,1.79896 -9.07072,2.82504 -11.33439,2.10659 -1.57434,-0.49968 -1.63374,-1.1093 -1.63374,-16.76667 0,-19.24637 -0.19184,-18.80056 7.26826,-16.88937 9.20232,2.35752 17.55622,8.181 22.70636,15.82851 1.45976,2.16763 2.8521,3.62081 3.09407,3.22929 0.49846,-0.80652 -0.0574,-43.46792 -0.57315,-43.9836 -0.18371,-0.18372 -1.85494,0.0755 -3.71382,0.57604 -3.40048,0.91566 -22.25855,0.2326 -44.78172,-1.62203 -5.06,-0.41666 -10.69694,-0.76326 -12.52654,-0.77022 l -3.32654,-0.0126 2.71885,5.4 z m 133.53424,-2.4536 c -2.95483,0.84791 -5.98583,1.00321 -11.6,0.59436 -13.07976,-0.95255 -19.72768,-0.62896 -25.55176,1.24373 -13.01257,4.18411 -20.46177,14.64789 -25.35475,35.61552 -2.13924,9.16715 -2.15874,40.67097 -0.03,48.4 5.29385,19.22056 10.60755,28.09352 21.18068,35.36801 6.59096,4.53471 10.81015,5.4569 26.41337,5.7732 10.11112,0.20496 15.09098,0.63588 17.47006,1.51173 1.8303,0.67378 3.5307,1.02206 3.7788,0.77395 0.3967,-0.39669 -0.2674,-40.31497 -0.6792,-40.82711 -0.088,-0.11011 -1.5434,1.80702 -3.2331,4.2603 -5.61342,8.15048 -13.61998,13.13913 -21.41588,13.34362 -16.25246,0.4263 -23.74654,-12.46296 -23.84036,-41.0037 -0.0865,-26.30404 5.74162,-40.00001 17.02134,-40.00001 3.05149,0 6.601,3.49943 7.77272,7.66304 2.37232,8.42986 1.70779,25.15516 -1.2276,30.89724 -0.60736,1.18815 -1.10432,2.34617 -1.10432,2.57339 0,0.40438 28.9517,-0.34959 29.456,-0.7671 0.1408,-0.11656 -0.4892,-2.62465 -1.4,-5.57352 -1.5406,-4.98796 -1.656,-7.30685 -1.656,-33.27732 0,-21.8522 -0.2172,-27.89416 -1,-27.81644 -0.55,0.0546 -2.8,0.61581 -5,1.24711 z m -213.6566,149.76786 c -1.79113,0.81351 -4.36781,2.82721 -5.72597,4.47489 -4.7643,5.77993 -6.41129,18.98986 -3.52417,28.2662 3.92855,12.62247 10.44019,16.10997 26.90673,14.41068 l 4.8,-0.49535 0.4,-3.88533 c 0.48004,-4.66277 0.0615,-12.28752 -0.67404,-12.27988 -0.28928,0.003 -1.36307,1.23486 -2.38621,2.73744 -3.48907,5.12407 -10.01854,6.52699 -13.33286,2.86471 -4.53109,-5.00679 -4.8169,-19.6166 -0.46089,-23.55874 3.71017,-3.35766 12.29978,-2.75156 16.46539,1.16182 2.46868,2.31921 3.00069,0.99385 1.55509,-3.87403 -1.43228,-4.82299 -4.13139,-8.26317 -7.87808,-10.04109 -3.75525,-1.78199 -11.98552,-1.67051 -16.14499,0.21868 z m 40.74315,-0.79832 c -4.17466,1.07393 -8.1894,4.03337 -10.2564,7.56043 -4.36609,7.45018 -4.39144,23.28113 -0.0514,32.15172 1.63392,3.33959 3.02468,4.89409 5.88067,6.57298 3.34519,1.96648 4.5018,2.19619 10.94064,2.17293 5.83373,-0.0211 7.83239,-0.35921 10.53263,-1.78189 6.44736,-3.39695 9.24809,-9.71657 9.30328,-20.9921 0.0838,-17.11599 -5.85874,-25.47789 -18.53355,-26.07913 -2.9163,-0.13834 -6.43341,0.0394 -7.81581,0.39506 z m 9.10435,9.30765 c 0.9608,0.67298 2.11889,2.56298 2.57354,4.2 0.90223,3.24862 1.1296,16.90617 0.34663,20.82101 -1.03142,5.15711 -5.84599,7.4205 -9.02413,4.24236 -2.45622,-2.45622 -3.69092,-11.92161 -2.62023,-20.08695 0.74708,-5.69736 1.22659,-7.09188 2.95709,-8.6 2.4359,-2.12287 3.41895,-2.22113 5.7671,-0.57642 z m 129.60151,-8.92665 c -4.05402,1.50934 -5.38405,2.72726 -7.10163,6.50307 -1.24137,2.72894 -1.4634,5.4964 -1.50833,18.8 -0.0387,11.45736 -0.35882,16.44977 -1.20553,18.8 -0.63405,1.76 -1.15825,3.29 -1.16488,3.4 -0.006,0.11 3.80992,0.2 8.48122,0.2 l 8.49326,0 -0.61087,-2.2 c -0.33597,-1.21 -0.75889,-9.30542 -0.9398,-17.98983 l -0.32893,-15.78983 2.01018,-2.01017 c 2.54798,-2.54799 5.60031,-2.56548 8.11926,-0.0465 1.94392,1.94392 1.96364,2.1129 1.96364,16.8257 0,11.40094 -0.27946,15.5309 -1.2,17.73406 -0.66,1.57961 -1.2,3.00804 -1.2,3.17431 0,0.16626 3.28196,0.3023 7.29326,0.3023 l 7.29326,0 -0.56016,-2.2 c -0.3081,-1.21 -0.86704,-9.85714 -1.24208,-19.21586 -0.62428,-15.57793 -0.83834,-17.29839 -2.53309,-20.35911 -2.73447,-4.93842 -5.99015,-6.4968 -14.20035,-6.79718 -4.48212,-0.164 -7.89073,0.1365 -9.85843,0.86908 z m 93.20759,-0.48163 c -9.79,0.11842 -17.8,0.52316 -17.8,0.89943 0,0.37625 0.54,2.21463 1.2,4.08527 1.7251,4.88936 1.7186,34.32881 -0.01,39.22421 -0.6647,1.88395 -1.1147,3.51782 -1,3.6308 0.1147,0.11299 8.0388,0.32683 17.6091,0.47521 l 17.4007,0.26978 -0.016,-8.8 -0.016,-8.8 -2.9379,3.50498 c -6.8863,8.21553 -17.4972,7.61889 -16.8747,-0.94884 0.2266,-3.1186 0.4223,-3.37347 2.765,-3.60095 1.9019,-0.18467 3.2283,0.37607 5.4,2.28288 l 2.8788,2.52768 0,-9.79076 0,-9.79077 -1.7724,2.30789 c -2.4926,3.24569 -3.0683,3.55227 -6.2276,3.31668 -2.7379,-0.20416 -2.8054,-0.29291 -3.0435,-4.00162 -0.2035,-3.1686 0.087,-4.12316 1.7636,-5.8 3.7619,-3.76182 10.1661,-2.08131 15.6018,4.09396 1.6939,1.92438 3.3045,3.49887 3.579,3.49887 0.7175,0 0.6183,-18.2565 -0.1009,-18.55279 -0.33,-0.13596 -8.61,-0.15032 -18.4,-0.0319 z m -204.5934,1.5847 c 1.56529,3.79271 1.95523,8.22011 1.95523,22.2 0,14.02531 -0.30435,17.64961 -1.89974,22.62365 l -0.58493,1.82365 10.66142,-0.22365 10.66141,-0.22365 3.62089,-11.1403 c 1.9915,-6.12716 4.02667,-11.27555 4.52261,-11.44087 0.5411,-0.18036 2.23065,3.95498 4.22467,10.3403 1.82763,5.85248 3.47116,11.09087 3.65229,11.64087 0.42939,1.30383 20.37954,1.44813 20.37954,0.14741 0,-0.46893 -0.4138,-1.62579 -0.91955,-2.5708 -1.43229,-2.67625 -0.96273,-37.55242 0.55448,-41.1836 0.64079,-1.53363 1.16507,-2.92444 1.16507,-3.09071 0,-0.16627 -3.96,-0.3023 -8.8,-0.3023 -4.84,0 -8.79457,0.09 -8.78795,0.2 0.006,0.11 0.53083,1.64 1.16488,3.4 1.35695,3.76653 1.7457,25.61742 0.44143,24.81134 -0.61037,-0.37723 -4.59376,-12.16634 -9.26193,-27.41134 -0.20099,-0.65637 -1.9729,-1 -5.15643,-1 -3.21421,0 -4.93409,0.3373 -5.09888,1 -0.26057,1.04789 -0.87685,3.03963 -5.69324,18.4 -1.62109,5.17 -3.27604,9.4 -3.67766,9.4 -1.23293,0 -0.81331,-20.77442 0.49286,-24.4 0.63405,-1.76 1.15825,-3.47 1.16488,-3.8 0.006,-0.33 -3.44647,-0.6 -7.67355,-0.6 -7.00638,0 -7.63453,0.12372 -7.1078,1.4 z m 62.4,0 c 1.58123,3.83133 1.95392,8.3286 1.93919,23.4 -0.0115,11.77223 -0.32339,17.26182 -1.10525,19.45414 -0.91722,2.57183 -0.91769,3.11997 -0.003,3.47097 0.59743,0.22925 6.77338,0.29489 13.72434,0.14586 13.89683,-0.29796 17.18631,-1.22198 20.59275,-5.78453 2.41857,-3.23941 2.3384,-11.91484 -0.14223,-15.39251 -2.09353,-2.93496 -7.43783,-5.64358 -13.27165,-6.72636 -6.90668,-1.28192 -8.29659,-4.82606 -5.74076,-14.63852 0.66,-2.53392 1.2,-4.76955 1.2,-4.96808 0,-0.19854 -3.99852,-0.36097 -8.8856,-0.36097 -8.14924,0 -8.83771,0.11601 -8.3078,1.4 z m 20.13894,27.92268 c 4.21447,1.9999 5.46285,6.26892 2.65445,9.07732 -3.67309,3.6731 -8,0.71638 -8,-5.46667 0,-5.42804 0.62543,-5.85049 5.34555,-3.61065 z m 72.25446,-28.62327 c 0,0.38468 0.54,2.22995 1.2,4.10059 1.4346,4.06602 1.7316,30.31179 0.3718,32.85259 -1.1195,2.09195 -5.0938,2.02544 -7.2404,-0.12117 -0.9177,-0.91771 -2.5342,-3.52771 -3.59216,-5.8 l -1.92361,-4.13142 -0.008,10.4 -0.008,10.4 19.40047,0 c 12.0085,0 19.6244,-0.30482 19.9882,-0.8 0.3233,-0.44 0.5933,-5.05125 0.6,-10.24721 0.013,-9.71987 -0.5541,-10.96773 -2.6786,-5.89809 -1.6172,3.85902 -5.2272,7.74689 -7.1803,7.73305 -4.0377,-0.0286 -4.1289,-0.41177 -4.1289,-17.35941 0,-13.50398 0.2056,-16.2282 1.4,-18.55125 0.77,-1.4976 1.4,-2.8476 1.4,-3 0,-0.1524 -3.96,-0.27709 -8.8,-0.27709 -4.84,0 -8.8,0.31473 -8.8,0.69941 z m 72,0.34059 c 0,0.572 0.45,1.48929 1,2.03843 0.7242,0.72311 1.0701,5.93481 1.2544,18.89917 0.231,16.25412 -0.071,20.26217 -1.8532,24.6224 -0.5311,1.299 0.3428,1.39859 12.1132,1.38044 18.4306,-0.0284 22.8913,-1.47602 25.4863,-8.271 2.1202,-5.55167 -0.2113,-11.68542 -5.5848,-14.69258 -1.4411,-0.8065 -1.3847,-0.97812 0.9738,-2.96266 2.8006,-2.35656 3.6762,-4.63056 5.0252,-13.05137 0.5108,-3.18843 1.2564,-5.99968 1.6569,-6.24721 0.4005,-0.24753 0.7282,-0.96881 0.7282,-1.60284 0,-0.91161 -1.3966,-1.15278 -6.676,-1.15278 -8.302,0 -9.324,0.82084 -9.324,7.48869 0,7.9051 -2.7416,11.72339 -7.7367,10.77525 -2.3922,-0.45405 -2.311,-8.44412 0.1671,-16.46394 0.5538,-1.79207 0.517,-1.8 -8.3371,-1.8 -6.7637,0 -8.8933,0.24903 -8.8933,1.04 z m 23.6364,29.72363 c 2.2702,2.27025 2.4733,4.15269 0.7182,6.65836 -1.2931,1.84614 -5.2895,2.42877 -7.4153,1.08105 -1.1905,-0.75475 -2.1951,-6.56126 -1.4646,-8.46492 0.7814,-2.0363 5.8504,-1.5857 8.1617,0.72551 z"
       style="fill:#ff0000" /></g></svg>
